# xmcd CD database file
#
# Track frame offsets:
#	150
#	28707
#	47947
#
# Disc length: 1017 seconds
#
# Revision: 0
# Processed by: cddbd v1.5.1PL0 Copyright (c) Steve Scherf et al.
# Submitted via: CDex 1.51
#
DISCID=2103f703
DTITLE=松山千春 - ひまわり [CODA-1288]
DYEAR=1997
DGENRE=Vocal
TTITLE0=ひまわり
TTITLE1=ねえ君
TTITLE2=ひまわり (オリジナル・カラオケ)
EXTD=YEAR: 1997
EXTT0=
EXTT1=
EXTT2=
PLAYORDER=
